<svg xmlns="http://www.w3.org/2000/svg" viewBox="0 0 64 64" xml:space="preserve"><path d="M16 9h40v2H16zm5 23a3 3 0 1 0-3 3 3 3 0 0 0 3-3m-3 1a1 1 0 1 1 1-1 1 1 0 0 1-1 1m33 9h-2v5h-5v2h5v5h2v-5h5v-2h-5z" data-original="#000000"/><path d="M56 5H12a1 1 0 0 0-1 1v7H8a1 1 0 0 0-1 1v11H6a3 3 0 0 0-3 3v8a3 3 0 0 0 3 3h1v11a1 1 0 0 0 1 1h31.426A10.995 10.995 0 0 0 61 48a11 11 0 0 0-.076-1.25A5 5 0 0 0 61 46V10a5.006 5.006 0 0 0-5-5M5 36v-8a1 1 0 0 1 1-1h14a3 3 0 0 1 3 3v4a3 3 0 0 1-3 3H6a1 1 0 0 1-1-1m45 21a9 9 0 1 1 9-9 9.01 9.01 0 0 1-9 9m0-20a11.013 11.013 0 0 0-11 11c0 .338.021.67.051 1H9V39h11a5.006 5.006 0 0 0 5-5v-4a5.006 5.006 0 0 0-5-5H9V15h47a4.97 4.97 0 0 0 3-1v27.7a10.99 10.99 0 0 0-9-4.7m6-24H13V7h43a3 3 0 0 1 0 6" data-original="#000000"/></svg>