<svg xmlns="http://www.w3.org/2000/svg" viewBox="0 0 4000 4000" xml:space="preserve"><circle cx="3025.684" cy="2101.351" r="101.351" transform="rotate(-45 3025.53 2102.06)"/><path d="M2721.63 1949.324v304.054c0 69.857 56.832 126.689 126.689 126.689h658.784v-557.432h-658.784c-69.857 0-126.689 56.832-126.689 126.689m304.054-50.675c111.77 0 202.703 90.933 202.703 202.703s-90.933 202.703-202.703 202.703-202.703-90.933-202.703-202.703 90.933-202.703 202.703-202.703m-1695.651-610.622c30.052-14.616 63.767-22.825 99.367-22.825h1613.136c15.013 0 26.031-14.611 21.353-28.879-34.167-104.203-135.725-173.823-266.245-173.823H1353.387c-27.987 0-50.676 22.689-50.676 50.676v157.673c0 14.055 14.684 23.326 27.322 17.178m-159.062 914.676H700.938c-29.104 0-52.477 24.535-50.566 54.05 1.744 26.934 25.312 47.301 52.303 47.301h468.561c13.139 0 23.79-10.652 23.79-23.792v-53.506c-.001-13.284-10.77-24.053-24.055-24.053m.538-304.054H523.573c-29.025 0-52.351 24.402-50.581 53.809 1.63 27.079 25.432 47.542 52.562 47.542h645.682c13.139 0 23.79-10.652 23.79-23.791v-54.044c-.001-12.988-10.529-23.516-23.517-23.516"/><path d="M3456.427 1366.554H1429.4c-69.857 0-126.689 56.832-126.689 126.689v405.405h291.385c27.987 0 50.676 22.689 50.676 50.676S1622.083 2000 1594.096 2000h-291.385v202.702h291.385c27.987 0 50.676 22.689 50.676 50.676s-22.689 50.676-50.676 50.676h-291.385v202.702h291.385c27.987 0 50.676 22.688 50.676 50.676s-22.689 50.676-50.676 50.676h-291.385v202.703c0 69.857 56.832 126.689 126.689 126.689h1951.013c69.857 0 126.689-56.832 126.689-126.689v-329.392h-658.784c-125.741 0-228.041-102.299-228.041-228.041v-304.054c0-125.741 102.299-228.041 228.041-228.041h658.784V1417.23c.001-27.942-22.732-50.676-50.675-50.676M1172.589 2506.757H878.302c-29.104 0-52.477 24.535-50.566 54.05 1.744 26.934 25.312 47.301 52.303 47.301h289.579c14.031 0 25.407-11.376 25.407-25.409v-53.506c0-12.39-10.044-22.436-22.436-22.436"/></svg>