<?xml version="1.0" encoding="utf-8"?>
<!-- Generator: Adobe Illustrator 26.3.1, SVG Export Plug-In . SVG Version: 6.00 Build 0)  -->
<svg version="1.1" id="Calque_1" xmlns="http://www.w3.org/2000/svg" xmlns:xlink="http://www.w3.org/1999/xlink" x="0px" y="0px"
	 viewBox="0 0 64 64" style="enable-background:new 0 0 64 64;" xml:space="preserve">
<style type="text/css">
	.st0{fill:#FF060A;}
</style>
<g id="tron">
	<path class="st0" d="M61.7,24.2c-2.4-2.2-5.7-5.6-8.4-8L53.1,16c-0.3-0.2-0.6-0.4-0.9-0.5l0,0c-6.5-1.2-36.9-6.9-37.5-6.8
		c-0.2,0-0.3,0.1-0.5,0.2L14.1,9c-0.2,0.2-0.3,0.4-0.4,0.7l0,0.1v0.6v0.1c3.4,9.5,16.9,40.7,19.6,48.1c0.2,0.5,0.5,1.4,1,1.5h0.1
		c0.3,0,1.6-1.7,1.6-1.7s23.2-28.1,25.6-31.1c0.3-0.4,0.6-0.8,0.8-1.2C62.5,25.3,62.2,24.6,61.7,24.2z M41.9,27.4l9.9-8.2l5.8,5.4
		L41.9,27.4z M38.1,26.9l-17.1-14L48.6,18L38.1,26.9z M39.6,30.6l17.5-2.8l-20,24L39.6,30.6z M18.7,14.3l17.9,15.2l-2.6,22.3
		L18.7,14.3z"/>
</g>
</svg>
